<?xml version="1.0" encoding="UTF-8" standalone="no"?>
<!-- Created with Inkscape (http://www.inkscape.org/) -->

<svg
   xmlns:dc="http://purl.org/dc/elements/1.1/"
   xmlns:cc="http://creativecommons.org/ns#"
   xmlns:rdf="http://www.w3.org/1999/02/22-rdf-syntax-ns#"
   xmlns:svg="http://www.w3.org/2000/svg"
   xmlns="http://www.w3.org/2000/svg"
   xmlns:sodipodi="http://sodipodi.sourceforge.net/DTD/sodipodi-0.dtd"
   xmlns:inkscape="http://www.inkscape.org/namespaces/inkscape"
   width="325"
   height="250"
   id="svg3136"
   version="1.1"
   inkscape:version="0.48.3.1 r9886"
   sodipodi:docname="New document 8">
  <defs
     id="defs3138" />
  <sodipodi:namedview
     id="base"
     pagecolor="#ffffff"
     bordercolor="#666666"
     borderopacity="1.0"
     inkscape:pageopacity="0.0"
     inkscape:pageshadow="2"
     inkscape:zoom="1.979899"
     inkscape:cx="178.71244"
     inkscape:cy="156.34508"
     inkscape:document-units="px"
     inkscape:current-layer="layer1"
     showgrid="false"
     showguides="true"
     inkscape:guide-bbox="true"
     inkscape:window-width="1366"
     inkscape:window-height="744"
     inkscape:window-x="0"
     inkscape:window-y="24"
     inkscape:window-maximized="1">
    <sodipodi:guide
       orientation="1,0"
       position="161.62441,163.64471"
       id="guide3159" />
  </sodipodi:namedview>
  <metadata
     id="metadata3141">
    <rdf:RDF>
      <cc:Work
         rdf:about="">
        <dc:format>image/svg+xml</dc:format>
        <dc:type
           rdf:resource="http://purl.org/dc/dcmitype/StillImage" />
        <dc:title></dc:title>
      </cc:Work>
    </rdf:RDF>
  </metadata>
  <g
     inkscape:label="Layer 1"
     inkscape:groupmode="layer"
     id="layer1"
     transform="translate(0,-802.36217)">
    <g
       id="g3115"
       transform="matrix(2.3380717,0,0,1.8324441,-305.34276,223.08617)">
      <g
         transform="matrix(-1,0,0,1,465.51924,-3.4486645)"
         id="text2993-8-1"
         style="font-size:40px;font-style:normal;font-variant:normal;font-weight:normal;font-stretch:normal;line-height:125%;letter-spacing:0px;word-spacing:0px;fill:#000000;fill-opacity:1;stroke:none;font-family:Grandesign Neue Serif;-inkscape-font-specification:Grandesign Neue Serif">
        <path
           sodipodi:nodetypes="cccccccccccccccccc"
           inkscape:connector-curvature="0"
           id="path2998-3-4"
           style="font-size:200px"
           d="m 273.49609,455.21933 -43.75,0 0,-10.9375 c 4.68741,10e-6 7.97517,-0.1302 9.86328,-0.39063 l -38.27008,-57.42187 c 0,-3.05977 0,-10.82869 -0.0112,-15.42969 l 32.03125,-39.45312 c -1.7579,-0.13009 -4.55738,-0.19519 -8.39843,-0.19532 l 0,-10.9375 17.48047,0 0,0 24.21875,0 0,10.9375 c -6.31523,1.3e-4 -10.57955,0.3582 -12.79297,1.07422 l -38.57422,45.3125 44.14062,65.03907 c 2.21342,0.97657 6.90092,1.46485 14.0625,1.46484 l 0,10.9375" />
      </g>
      <g
         transform="translate(-65.447806,-3.4486574)"
         id="text2993-8-1-4"
         style="font-size:40px;font-style:normal;font-variant:normal;font-weight:normal;font-stretch:normal;line-height:125%;letter-spacing:0px;word-spacing:0px;fill:#000000;fill-opacity:1;stroke:none;font-family:Grandesign Neue Serif;-inkscape-font-specification:Grandesign Neue Serif">
        <path
           sodipodi:nodetypes="cccccccccccccccccc"
           inkscape:connector-curvature="0"
           id="path2998-3-4-0"
           style="font-size:200px"
           d="m 273.49609,455.21933 -43.75,0 0,-10.9375 c 4.68741,10e-6 7.97517,-0.1302 9.86328,-0.39063 l -38.27008,-57.42187 c 0,-3.05977 0,-10.82869 -0.0112,-15.42969 l 32.03125,-39.45312 c -1.7579,-0.13009 -4.55738,-0.19519 -8.39843,-0.19532 l 0,-10.9375 17.48047,0 0,0 24.21875,0 0,10.9375 c -6.31523,1.3e-4 -10.57955,0.3582 -12.79297,1.07422 l -38.57422,45.3125 44.14062,65.03907 c 2.21342,0.97657 6.90092,1.46485 14.0625,1.46484 l 0,10.9375" />
      </g>
    </g>
  </g>
</svg>
